<svg width="160" height="48" viewBox="0 0 160 48" fill="none" xmlns="http://www.w3.org/2000/svg">
<rect width="160" height="48" rx="4" fill="#F5C400"/>
<path d="M17.297 18.255C17.297 18.255 17.317 21.101 18.778 24.045C20.28 26.879 22.35 28.699 24.058 29.425C25.823 28.599 27.528 27.167 28.458 25.625H23.613C22.36 24.585 21.373 22.862 21.147 20.87H35.36C34.659 24.073 33.172 26.986 31.755 28.841C29.7817 31.4183 27.116 33.381 24.069 34.5H24.024C18.926 32.469 16.184 29.27 14.374 25.66C13.214 23.347 12 19.147 12 13.5H36C36.0039 15.0905 35.897 16.6794 35.68 18.255H17.297Z" fill="black"/>
<path d="M54.76 9.01951V13.9195C54.76 14.5995 54.5633 15.1295 54.17 15.5095C53.7767 15.8828 53.25 16.0695 52.59 16.0695C51.9233 16.0695 51.3833 15.8762 50.97 15.4895C50.5633 15.1028 50.36 14.5628 50.36 13.8695H51.76C51.7667 14.1695 51.8367 14.4028 51.97 14.5695C52.11 14.7362 52.31 14.8195 52.57 14.8195C52.8233 14.8195 53.0167 14.7395 53.15 14.5795C53.2833 14.4195 53.35 14.1995 53.35 13.9195V9.01951H54.76ZM59.6331 16.0695C58.9798 16.0695 58.3798 15.9162 57.8331 15.6095C57.2865 15.3028 56.8531 14.8795 56.5331 14.3395C56.2131 13.7928 56.0531 13.1762 56.0531 12.4895C56.0531 11.8095 56.2131 11.1995 56.5331 10.6595C56.8531 10.1128 57.2865 9.68618 57.8331 9.37951C58.3798 9.07284 58.9798 8.91951 59.6331 8.91951C60.2931 8.91951 60.8931 9.07284 61.4331 9.37951C61.9798 9.68618 62.4098 10.1128 62.7231 10.6595C63.0431 11.1995 63.2031 11.8095 63.2031 12.4895C63.2031 13.1762 63.0431 13.7928 62.7231 14.3395C62.4098 14.8795 61.9798 15.3028 61.4331 15.6095C60.8865 15.9162 60.2865 16.0695 59.6331 16.0695ZM59.6331 14.8195C60.0531 14.8195 60.4231 14.7262 60.7431 14.5395C61.0631 14.3462 61.3131 14.0728 61.4931 13.7195C61.6731 13.3662 61.7631 12.9562 61.7631 12.4895C61.7631 12.0228 61.6731 11.6162 61.4931 11.2695C61.3131 10.9162 61.0631 10.6462 60.7431 10.4595C60.4231 10.2728 60.0531 10.1795 59.6331 10.1795C59.2131 10.1795 58.8398 10.2728 58.5131 10.4595C58.1931 10.6462 57.9431 10.9162 57.7631 11.2695C57.5831 11.6162 57.4931 12.0228 57.4931 12.4895C57.4931 12.9562 57.5831 13.3662 57.7631 13.7195C57.9431 14.0728 58.1931 14.3462 58.5131 14.5395C58.8398 14.7262 59.2131 14.8195 59.6331 14.8195ZM65.6447 9.01951V15.9995H64.2447V9.01951H65.6447ZM72.9979 15.9995H71.5979L68.4279 11.2095V15.9995H67.0279V9.00951H68.4279L71.5979 13.8095V9.00951H72.9979V15.9995ZM78.1442 9.01951V13.3395C78.1442 13.8128 78.2676 14.1762 78.5142 14.4295C78.7609 14.6762 79.1076 14.7995 79.5542 14.7995C80.0076 14.7995 80.3576 14.6762 80.6042 14.4295C80.8509 14.1762 80.9742 13.8128 80.9742 13.3395V9.01951H82.3842V13.3295C82.3842 13.9228 82.2542 14.4262 81.9942 14.8395C81.7409 15.2462 81.3976 15.5528 80.9642 15.7595C80.5376 15.9662 80.0609 16.0695 79.5342 16.0695C79.0142 16.0695 78.5409 15.9662 78.1142 15.7595C77.6942 15.5528 77.3609 15.2462 77.1142 14.8395C76.8676 14.4262 76.7442 13.9228 76.7442 13.3295V9.01951H78.1442ZM86.1469 16.0695C85.6602 16.0695 85.2202 15.9862 84.8269 15.8195C84.4402 15.6528 84.1335 15.4128 83.9069 15.0995C83.6802 14.7862 83.5635 14.4162 83.5569 13.9895H85.0569C85.0769 14.2762 85.1769 14.5028 85.3569 14.6695C85.5435 14.8362 85.7969 14.9195 86.1169 14.9195C86.4435 14.9195 86.7002 14.8428 86.8869 14.6895C87.0735 14.5295 87.1669 14.3228 87.1669 14.0695C87.1669 13.8628 87.1035 13.6928 86.9769 13.5595C86.8502 13.4262 86.6902 13.3228 86.4969 13.2495C86.3102 13.1695 86.0502 13.0828 85.7169 12.9895C85.2635 12.8562 84.8935 12.7262 84.6069 12.5995C84.3269 12.4662 84.0835 12.2695 83.8769 12.0095C83.6769 11.7428 83.5769 11.3895 83.5769 10.9495C83.5769 10.5362 83.6802 10.1762 83.8869 9.86951C84.0935 9.56284 84.3835 9.32951 84.7569 9.16951C85.1302 9.00284 85.5569 8.91951 86.0369 8.91951C86.7569 8.91951 87.3402 9.09618 87.7869 9.44951C88.2402 9.79618 88.4902 10.2828 88.5369 10.9095H86.9969C86.9835 10.6695 86.8802 10.4728 86.6869 10.3195C86.5002 10.1595 86.2502 10.0795 85.9369 10.0795C85.6635 10.0795 85.4435 10.1495 85.2769 10.2895C85.1169 10.4295 85.0369 10.6328 85.0369 10.8995C85.0369 11.0862 85.0969 11.2428 85.2169 11.3695C85.3435 11.4895 85.4969 11.5895 85.6769 11.6695C85.8635 11.7428 86.1235 11.8295 86.4569 11.9295C86.9102 12.0628 87.2802 12.1962 87.5669 12.3295C87.8535 12.4628 88.1002 12.6628 88.3069 12.9295C88.5135 13.1962 88.6169 13.5462 88.6169 13.9795C88.6169 14.3528 88.5202 14.6995 88.3269 15.0195C88.1335 15.3395 87.8502 15.5962 87.4769 15.7895C87.1035 15.9762 86.6602 16.0695 86.1469 16.0695Z" fill="black"/>
<path d="M63.872 25.1195C63.44 24.2875 62.84 23.6635 62.072 23.2475C61.304 22.8155 60.416 22.5995 59.408 22.5995C58.304 22.5995 57.32 22.8475 56.456 23.3435C55.592 23.8395 54.912 24.5435 54.416 25.4555C53.936 26.3675 53.696 27.4235 53.696 28.6235C53.696 29.8235 53.936 30.8875 54.416 31.8155C54.912 32.7275 55.592 33.4315 56.456 33.9275C57.32 34.4235 58.304 34.6715 59.408 34.6715C60.896 34.6715 62.104 34.2555 63.032 33.4235C63.96 32.5915 64.528 31.4635 64.736 30.0395H58.472V27.8555H67.664V29.9915C67.488 31.2875 67.024 32.4795 66.272 33.5675C65.536 34.6555 64.568 35.5275 63.368 36.1835C62.184 36.8235 60.864 37.1435 59.408 37.1435C57.84 37.1435 56.408 36.7835 55.112 36.0635C53.816 35.3275 52.784 34.3115 52.016 33.0155C51.264 31.7195 50.888 30.2555 50.888 28.6235C50.888 26.9915 51.264 25.5275 52.016 24.2315C52.784 22.9355 53.816 21.9275 55.112 21.2075C56.424 20.4715 57.856 20.1035 59.408 20.1035C61.184 20.1035 62.76 20.5435 64.136 21.4235C65.528 22.2875 66.536 23.5195 67.16 25.1195H63.872ZM82.3385 23.7755V36.9995H79.6025V35.4395C79.1705 35.9835 78.6025 36.4155 77.8985 36.7355C77.2105 37.0395 76.4745 37.1915 75.6905 37.1915C74.6505 37.1915 73.7145 36.9755 72.8825 36.5435C72.0665 36.1115 71.4185 35.4715 70.9385 34.6235C70.4745 33.7755 70.2425 32.7515 70.2425 31.5515V23.7755H72.9545V31.1435C72.9545 32.3275 73.2505 33.2395 73.8425 33.8795C74.4345 34.5035 75.2425 34.8155 76.2665 34.8155C77.2905 34.8155 78.0985 34.5035 78.6905 33.8795C79.2985 33.2395 79.6025 32.3275 79.6025 31.1435V23.7755H82.3385ZM87.3404 22.0235C86.8444 22.0235 86.4284 21.8555 86.0924 21.5195C85.7564 21.1835 85.5884 20.7675 85.5884 20.2715C85.5884 19.7755 85.7564 19.3595 86.0924 19.0235C86.4284 18.6875 86.8444 18.5195 87.3404 18.5195C87.8204 18.5195 88.2284 18.6875 88.5644 19.0235C88.9004 19.3595 89.0684 19.7755 89.0684 20.2715C89.0684 20.7675 88.9004 21.1835 88.5644 21.5195C88.2284 21.8555 87.8204 22.0235 87.3404 22.0235ZM88.6844 23.7755V36.9995H85.9484V23.7755H88.6844ZM95.0126 19.2395V36.9995H92.2766V19.2395H95.0126ZM97.6927 30.3275C97.6927 28.9995 97.9647 27.8235 98.5087 26.7995C99.0687 25.7755 99.8207 24.9835 100.765 24.4235C101.725 23.8475 102.789 23.5595 103.957 23.5595C104.821 23.5595 105.669 23.7515 106.501 24.1355C107.349 24.5035 108.021 24.9995 108.517 25.6235V19.2395H111.277V36.9995H108.517V35.0075C108.069 35.6475 107.445 36.1755 106.645 36.5915C105.861 37.0075 104.957 37.2155 103.933 37.2155C102.781 37.2155 101.725 36.9275 100.765 36.3515C99.8207 35.7595 99.0687 34.9435 98.5087 33.9035C97.9647 32.8475 97.6927 31.6555 97.6927 30.3275ZM108.517 30.3755C108.517 29.4635 108.325 28.6715 107.941 27.9995C107.573 27.3275 107.085 26.8155 106.477 26.4635C105.869 26.1115 105.213 25.9355 104.509 25.9355C103.805 25.9355 103.149 26.1115 102.541 26.4635C101.933 26.7995 101.437 27.3035 101.053 27.9755C100.685 28.6315 100.501 29.4155 100.501 30.3275C100.501 31.2395 100.685 32.0395 101.053 32.7275C101.437 33.4155 101.933 33.9435 102.541 34.3115C103.165 34.6635 103.821 34.8395 104.509 34.8395C105.213 34.8395 105.869 34.6635 106.477 34.3115C107.085 33.9595 107.573 33.4475 107.941 32.7755C108.325 32.0875 108.517 31.2875 108.517 30.3755ZM126.99 30.0635C126.99 30.5595 126.958 31.0075 126.894 31.4075H116.79C116.87 32.4635 117.262 33.3115 117.966 33.9515C118.67 34.5915 119.534 34.9115 120.558 34.9115C122.03 34.9115 123.07 34.2955 123.678 33.0635H126.63C126.23 34.2795 125.502 35.2795 124.446 36.0635C123.406 36.8315 122.11 37.2155 120.558 37.2155C119.294 37.2155 118.158 36.9355 117.15 36.3755C116.158 35.7995 115.374 34.9995 114.798 33.9755C114.238 32.9355 113.958 31.7355 113.958 30.3755C113.958 29.0155 114.23 27.8235 114.774 26.7995C115.334 25.7595 116.11 24.9595 117.102 24.3995C118.11 23.8395 119.262 23.5595 120.558 23.5595C121.806 23.5595 122.918 23.8315 123.894 24.3755C124.87 24.9195 125.63 25.6875 126.174 26.6795C126.718 27.6555 126.99 28.7835 126.99 30.0635ZM124.134 29.1995C124.118 28.1915 123.758 27.3835 123.054 26.7755C122.35 26.1675 121.478 25.8635 120.438 25.8635C119.494 25.8635 118.686 26.1675 118.014 26.7755C117.342 27.3675 116.942 28.1755 116.814 29.1995H124.134ZM128.771 30.3275C128.771 28.9995 129.043 27.8235 129.587 26.7995C130.147 25.7755 130.899 24.9835 131.843 24.4235C132.803 23.8475 133.867 23.5595 135.035 23.5595C135.899 23.5595 136.747 23.7515 137.579 24.1355C138.427 24.5035 139.099 24.9995 139.595 25.6235V19.2395H142.355V36.9995H139.595V35.0075C139.147 35.6475 138.523 36.1755 137.723 36.5915C136.939 37.0075 136.035 37.2155 135.011 37.2155C133.859 37.2155 132.803 36.9275 131.843 36.3515C130.899 35.7595 130.147 34.9435 129.587 33.9035C129.043 32.8475 128.771 31.6555 128.771 30.3275ZM139.595 30.3755C139.595 29.4635 139.403 28.6715 139.019 27.9995C138.651 27.3275 138.163 26.8155 137.555 26.4635C136.947 26.1115 136.291 25.9355 135.587 25.9355C134.883 25.9355 134.227 26.1115 133.619 26.4635C133.011 26.7995 132.515 27.3035 132.131 27.9755C131.763 28.6315 131.579 29.4155 131.579 30.3275C131.579 31.2395 131.763 32.0395 132.131 32.7275C132.515 33.4155 133.011 33.9435 133.619 34.3115C134.243 34.6635 134.899 34.8395 135.587 34.8395C136.291 34.8395 136.947 34.6635 137.555 34.3115C138.163 33.9595 138.651 33.4475 139.019 32.7755C139.403 32.0875 139.595 31.2875 139.595 30.3755Z" fill="black"/>
<rect x="50" y="40.9995" width="108" height="0.001" fill="black"/>
</svg>
