<svg width="160" height="48" viewBox="0 0 160 48" fill="none" xmlns="http://www.w3.org/2000/svg">
<rect width="160" height="48" rx="4" fill="#DB2219"/>
<path d="M25.383 26.341L21.657 25.383L22.616 21.657L26.342 22.616L25.382 26.342L25.383 26.341ZM16.913 12L12 31.088L31.088 36L36 16.912L16.912 12H16.913Z" fill="white"/>
<path d="M54.76 9.51951V14.4195C54.76 15.0995 54.5633 15.6295 54.17 16.0095C53.7767 16.3828 53.25 16.5695 52.59 16.5695C51.9233 16.5695 51.3833 16.3762 50.97 15.9895C50.5633 15.6028 50.36 15.0628 50.36 14.3695H51.76C51.7667 14.6695 51.8367 14.9028 51.97 15.0695C52.11 15.2362 52.31 15.3195 52.57 15.3195C52.8233 15.3195 53.0167 15.2395 53.15 15.0795C53.2833 14.9195 53.35 14.6995 53.35 14.4195V9.51951H54.76ZM59.6331 16.5695C58.9798 16.5695 58.3798 16.4162 57.8331 16.1095C57.2865 15.8028 56.8531 15.3795 56.5331 14.8395C56.2131 14.2928 56.0531 13.6762 56.0531 12.9895C56.0531 12.3095 56.2131 11.6995 56.5331 11.1595C56.8531 10.6128 57.2865 10.1862 57.8331 9.87951C58.3798 9.57284 58.9798 9.41951 59.6331 9.41951C60.2931 9.41951 60.8931 9.57284 61.4331 9.87951C61.9798 10.1862 62.4098 10.6128 62.7231 11.1595C63.0431 11.6995 63.2031 12.3095 63.2031 12.9895C63.2031 13.6762 63.0431 14.2928 62.7231 14.8395C62.4098 15.3795 61.9798 15.8028 61.4331 16.1095C60.8865 16.4162 60.2865 16.5695 59.6331 16.5695ZM59.6331 15.3195C60.0531 15.3195 60.4231 15.2262 60.7431 15.0395C61.0631 14.8462 61.3131 14.5728 61.4931 14.2195C61.6731 13.8662 61.7631 13.4562 61.7631 12.9895C61.7631 12.5228 61.6731 12.1162 61.4931 11.7695C61.3131 11.4162 61.0631 11.1462 60.7431 10.9595C60.4231 10.7728 60.0531 10.6795 59.6331 10.6795C59.2131 10.6795 58.8398 10.7728 58.5131 10.9595C58.1931 11.1462 57.9431 11.4162 57.7631 11.7695C57.5831 12.1162 57.4931 12.5228 57.4931 12.9895C57.4931 13.4562 57.5831 13.8662 57.7631 14.2195C57.9431 14.5728 58.1931 14.8462 58.5131 15.0395C58.8398 15.2262 59.2131 15.3195 59.6331 15.3195ZM65.6447 9.51951V16.4995H64.2447V9.51951H65.6447ZM72.9979 16.4995H71.5979L68.4279 11.7095V16.4995H67.0279V9.50951H68.4279L71.5979 14.3095V9.50951H72.9979V16.4995ZM80.0042 16.5695C79.3509 16.5695 78.7509 16.4162 78.2042 16.1095C77.6576 15.8028 77.2242 15.3795 76.9042 14.8395C76.5842 14.2928 76.4242 13.6762 76.4242 12.9895C76.4242 12.3095 76.5842 11.6995 76.9042 11.1595C77.2242 10.6128 77.6576 10.1862 78.2042 9.87951C78.7509 9.57284 79.3509 9.41951 80.0042 9.41951C80.6642 9.41951 81.2642 9.57284 81.8042 9.87951C82.3509 10.1862 82.7809 10.6128 83.0942 11.1595C83.4142 11.6995 83.5742 12.3095 83.5742 12.9895C83.5742 13.6762 83.4142 14.2928 83.0942 14.8395C82.7809 15.3795 82.3509 15.8028 81.8042 16.1095C81.2576 16.4162 80.6576 16.5695 80.0042 16.5695ZM80.0042 15.3195C80.4242 15.3195 80.7942 15.2262 81.1142 15.0395C81.4342 14.8462 81.6842 14.5728 81.8642 14.2195C82.0442 13.8662 82.1342 13.4562 82.1342 12.9895C82.1342 12.5228 82.0442 12.1162 81.8642 11.7695C81.6842 11.4162 81.4342 11.1462 81.1142 10.9595C80.7942 10.7728 80.4242 10.6795 80.0042 10.6795C79.5842 10.6795 79.2109 10.7728 78.8842 10.9595C78.5642 11.1462 78.3142 11.4162 78.1342 11.7695C77.9542 12.1162 77.8642 12.5228 77.8642 12.9895C77.8642 13.4562 77.9542 13.8662 78.1342 14.2195C78.3142 14.5728 78.5642 14.8462 78.8842 15.0395C79.2109 15.2262 79.5842 15.3195 80.0042 15.3195ZM90.5858 16.4995H89.1858L86.0158 11.7095V16.4995H84.6158V9.50951H86.0158L89.1858 14.3095V9.50951H90.5858V16.4995Z" fill="white"/>
<g clip-path="url(#clip0_103_396)">
<path d="M62.2169 31.6609L65.1337 36.9993H59.7216L57.2588 32.4371H54.9256V36.9993H50V20.8273H59.0087C62.7353 20.8273 65.1013 22.8956 65.1013 26.6152C65.1013 29.0087 63.9995 30.7232 62.2169 31.6609ZM54.9256 25.0303V28.2324H58.4254C59.4624 28.2324 60.1105 27.6179 60.1105 26.6152C60.1105 25.6125 59.4624 25.0303 58.4254 25.0303H54.9256ZM80.7855 38.1947L66.0411 34.2164L69.9945 19.4995L77.3668 21.4887L84.739 23.4778L80.7855 38.1947ZM77.9987 27.3591L73.8832 26.2271L72.7814 30.3348L76.8969 31.4671L77.9987 27.3591ZM101.623 32.4371C101.623 35.5422 99.646 36.9993 96.5674 36.9993H86.9107V20.8273H96.2434C99.3218 20.8273 101.298 22.4122 101.298 25.1937C101.298 26.9403 100.65 28.1051 99.419 28.9137C100.813 29.5262 101.623 30.7556 101.623 32.4371ZM91.7066 24.7086V27.102H94.9128C95.7878 27.102 96.3065 26.7139 96.3065 25.873C96.3065 25.0967 95.7878 24.7086 94.9128 24.7086H91.7066ZM91.7066 33.118H95.3036C96.1462 33.118 96.6339 32.6652 96.6339 31.8886C96.6339 31.048 96.1478 30.6599 95.3036 30.6599H91.7066V33.118ZM104.053 20.8273H108.978V32.2111H116.042V36.9993H104.052L104.053 20.8273ZM134.158 28.9137C134.158 30.5769 133.664 32.2028 132.738 33.5857C131.812 34.9686 130.496 36.0465 128.957 36.683C127.417 37.3195 125.723 37.486 124.089 37.1615C122.455 36.837 120.953 36.0361 119.775 34.86C118.597 33.684 117.794 32.1855 117.469 30.5543C117.144 28.923 117.311 27.2321 117.948 25.6955C118.586 24.1589 119.666 22.8455 121.052 21.9215C122.437 20.9974 124.066 20.5042 125.733 20.5042C126.839 20.502 127.936 20.718 128.959 21.1397C129.982 21.5614 130.912 22.1806 131.695 22.9618C132.477 23.7429 133.098 24.6706 133.521 25.6917C133.944 26.7128 134.16 27.8071 134.158 28.912V28.9137ZM129.233 28.9137C129.233 26.908 127.644 25.3231 125.733 25.3231C123.821 25.3231 122.233 26.908 122.233 28.9137C122.233 30.9193 123.821 32.5038 125.733 32.5038C127.644 32.5038 129.233 30.917 129.233 28.912V28.9137ZM146.018 28.6546L151.333 36.9993H145.466L142.551 32.2431L139.537 36.9993H133.575L139.116 28.8483L134.028 20.8273H139.894L142.583 25.1937L145.176 20.8273H151.009L146.018 28.6546Z" fill="white"/>
</g>
<rect x="50" y="40.4995" width="108" height="0.001" fill="white"/>
<defs>
<clipPath id="clip0_103_396">
<rect width="101.333" height="19" fill="white" transform="translate(50 19.4995)"/>
</clipPath>
</defs>
</svg>
