<svg width="164" height="48" viewBox="0 0 164 48" fill="none" xmlns="http://www.w3.org/2000/svg">
<rect width="164" height="48" rx="4" fill="#FE0000"/>
<path d="M37.2875 16.7251C37.1726 16.2642 36.9477 15.8381 36.632 15.4832C36.3163 15.1284 35.9193 14.8553 35.475 14.6876C31.2 13.0376 24.375 13.0501 24 13.0501C23.625 13.0501 16.8 13.0376 12.525 14.6876C12.0807 14.8553 11.6837 15.1284 11.368 15.4832C11.0523 15.8381 10.8274 16.2642 10.7125 16.7251C10.3875 17.9626 10 20.2376 10 24.0001C10 27.7626 10.3875 30.0376 10.7125 31.2751C10.8274 31.7359 11.0523 32.162 11.368 32.5169C11.6837 32.8717 12.0807 33.1448 12.525 33.3126C16.625 34.9001 23.05 34.9501 23.9125 34.9501H24.0875C24.95 34.9501 31.375 34.9001 35.475 33.3126C35.9193 33.1448 36.3163 32.8717 36.632 32.5169C36.9477 32.162 37.1726 31.7359 37.2875 31.2751C37.6125 30.0376 38 27.7626 38 24.0001C38 20.2376 37.6125 17.9626 37.2875 16.7251V16.7251ZM28.275 24.4126L22.275 28.4126C22.1954 28.4711 22.0988 28.5019 22 28.5001C21.9172 28.497 21.8361 28.4756 21.7625 28.4376C21.6826 28.396 21.6158 28.3331 21.5694 28.2559C21.5231 28.1787 21.4991 28.0901 21.5 28.0001V20.0001C21.4991 19.91 21.5231 19.8214 21.5694 19.7442C21.6158 19.667 21.6826 19.6041 21.7625 19.5626C21.8422 19.52 21.932 19.4999 22.0222 19.5043C22.1124 19.5087 22.1998 19.5375 22.275 19.5876L28.275 23.5876C28.3447 23.6315 28.4022 23.6923 28.442 23.7645C28.4818 23.8366 28.5027 23.9177 28.5027 24.0001C28.5027 24.0824 28.4818 24.1635 28.442 24.2356C28.4022 24.3078 28.3447 24.3686 28.275 24.4126Z" fill="white"/>
<path d="M53.1 16.0695C52.6133 16.0695 52.1733 15.9862 51.78 15.8195C51.3933 15.6528 51.0867 15.4128 50.86 15.0995C50.6333 14.7862 50.5167 14.4162 50.51 13.9895H52.01C52.03 14.2762 52.13 14.5028 52.31 14.6695C52.4967 14.8362 52.75 14.9195 53.07 14.9195C53.3967 14.9195 53.6533 14.8428 53.84 14.6895C54.0267 14.5295 54.12 14.3228 54.12 14.0695C54.12 13.8628 54.0567 13.6928 53.93 13.5595C53.8033 13.4262 53.6433 13.3228 53.45 13.2495C53.2633 13.1695 53.0033 13.0828 52.67 12.9895C52.2167 12.8562 51.8467 12.7262 51.56 12.5995C51.28 12.4662 51.0367 12.2695 50.83 12.0095C50.63 11.7428 50.53 11.3895 50.53 10.9495C50.53 10.5362 50.6333 10.1762 50.84 9.86951C51.0467 9.56284 51.3367 9.32951 51.71 9.16951C52.0833 9.00284 52.51 8.91951 52.99 8.91951C53.71 8.91951 54.2933 9.09618 54.74 9.44951C55.1933 9.79618 55.4433 10.2828 55.49 10.9095H53.95C53.9367 10.6695 53.8333 10.4728 53.64 10.3195C53.4533 10.1595 53.2033 10.0795 52.89 10.0795C52.6167 10.0795 52.3967 10.1495 52.23 10.2895C52.07 10.4295 51.99 10.6328 51.99 10.8995C51.99 11.0862 52.05 11.2428 52.17 11.3695C52.2967 11.4895 52.45 11.5895 52.63 11.6695C52.8167 11.7428 53.0767 11.8295 53.41 11.9295C53.8633 12.0628 54.2333 12.1962 54.52 12.3295C54.8067 12.4628 55.0533 12.6628 55.26 12.9295C55.4667 13.1962 55.57 13.5462 55.57 13.9795C55.57 14.3528 55.4733 14.6995 55.28 15.0195C55.0867 15.3395 54.8033 15.5962 54.43 15.7895C54.0567 15.9762 53.6133 16.0695 53.1 16.0695ZM58.1638 9.01951V13.3395C58.1638 13.8128 58.2871 14.1762 58.5338 14.4295C58.7804 14.6762 59.1271 14.7995 59.5738 14.7995C60.0271 14.7995 60.3771 14.6762 60.6238 14.4295C60.8704 14.1762 60.9938 13.8128 60.9938 13.3395V9.01951H62.4038V13.3295C62.4038 13.9228 62.2738 14.4262 62.0138 14.8395C61.7604 15.2462 61.4171 15.5528 60.9838 15.7595C60.5571 15.9662 60.0804 16.0695 59.5538 16.0695C59.0338 16.0695 58.5604 15.9662 58.1338 15.7595C57.7138 15.5528 57.3804 15.2462 57.1338 14.8395C56.8871 14.4262 56.7638 13.9228 56.7638 13.3295V9.01951H58.1638ZM67.7164 12.4195C68.1097 12.4928 68.4331 12.6895 68.6864 13.0095C68.9397 13.3295 69.0664 13.6962 69.0664 14.1095C69.0664 14.4828 68.9731 14.8128 68.7864 15.0995C68.6064 15.3795 68.3431 15.5995 67.9964 15.7595C67.6497 15.9195 67.2397 15.9995 66.7664 15.9995H63.7564V9.01951H66.6364C67.1097 9.01951 67.5164 9.09618 67.8564 9.24951C68.2031 9.40284 68.4631 9.61618 68.6364 9.88951C68.8164 10.1628 68.9064 10.4728 68.9064 10.8195C68.9064 11.2262 68.7964 11.5662 68.5764 11.8395C68.3631 12.1128 68.0764 12.3062 67.7164 12.4195ZM65.1564 11.8995H66.4364C66.7697 11.8995 67.0264 11.8262 67.2064 11.6795C67.3864 11.5262 67.4764 11.3095 67.4764 11.0295C67.4764 10.7495 67.3864 10.5328 67.2064 10.3795C67.0264 10.2262 66.7697 10.1495 66.4364 10.1495H65.1564V11.8995ZM66.5664 14.8595C66.9064 14.8595 67.1697 14.7795 67.3564 14.6195C67.5497 14.4595 67.6464 14.2328 67.6464 13.9395C67.6464 13.6395 67.5464 13.4062 67.3464 13.2395C67.1464 13.0662 66.8764 12.9795 66.5364 12.9795H65.1564V14.8595H66.5664ZM72.5922 16.0695C72.1055 16.0695 71.6655 15.9862 71.2722 15.8195C70.8855 15.6528 70.5789 15.4128 70.3522 15.0995C70.1255 14.7862 70.0089 14.4162 70.0022 13.9895H71.5022C71.5222 14.2762 71.6222 14.5028 71.8022 14.6695C71.9889 14.8362 72.2422 14.9195 72.5622 14.9195C72.8889 14.9195 73.1455 14.8428 73.3322 14.6895C73.5189 14.5295 73.6122 14.3228 73.6122 14.0695C73.6122 13.8628 73.5489 13.6928 73.4222 13.5595C73.2955 13.4262 73.1355 13.3228 72.9422 13.2495C72.7555 13.1695 72.4955 13.0828 72.1622 12.9895C71.7089 12.8562 71.3389 12.7262 71.0522 12.5995C70.7722 12.4662 70.5289 12.2695 70.3222 12.0095C70.1222 11.7428 70.0222 11.3895 70.0222 10.9495C70.0222 10.5362 70.1255 10.1762 70.3322 9.86951C70.5389 9.56284 70.8289 9.32951 71.2022 9.16951C71.5755 9.00284 72.0022 8.91951 72.4822 8.91951C73.2022 8.91951 73.7855 9.09618 74.2322 9.44951C74.6855 9.79618 74.9355 10.2828 74.9822 10.9095H73.4422C73.4289 10.6695 73.3255 10.4728 73.1322 10.3195C72.9455 10.1595 72.6955 10.0795 72.3822 10.0795C72.1089 10.0795 71.8889 10.1495 71.7222 10.2895C71.5622 10.4295 71.4822 10.6328 71.4822 10.8995C71.4822 11.0862 71.5422 11.2428 71.6622 11.3695C71.7889 11.4895 71.9422 11.5895 72.1222 11.6695C72.3089 11.7428 72.5689 11.8295 72.9022 11.9295C73.3555 12.0628 73.7255 12.1962 74.0122 12.3295C74.2989 12.4628 74.5455 12.6628 74.7522 12.9295C74.9589 13.1962 75.0622 13.5462 75.0622 13.9795C75.0622 14.3528 74.9655 14.6995 74.7722 15.0195C74.5789 15.3395 74.2955 15.5962 73.9222 15.7895C73.5489 15.9762 73.1055 16.0695 72.5922 16.0695ZM75.9359 12.4995C75.9359 11.8128 76.0893 11.1995 76.3959 10.6595C76.7093 10.1128 77.1326 9.68951 77.6659 9.38951C78.2059 9.08284 78.8093 8.92951 79.4759 8.92951C80.2559 8.92951 80.9393 9.12951 81.5259 9.52951C82.1126 9.92951 82.5226 10.4828 82.7559 11.1895H81.1459C80.9859 10.8562 80.7593 10.6062 80.4659 10.4395C80.1793 10.2728 79.8459 10.1895 79.4659 10.1895C79.0593 10.1895 78.6959 10.2862 78.3759 10.4795C78.0626 10.6662 77.8159 10.9328 77.6359 11.2795C77.4626 11.6262 77.3759 12.0328 77.3759 12.4995C77.3759 12.9595 77.4626 13.3662 77.6359 13.7195C77.8159 14.0662 78.0626 14.3362 78.3759 14.5295C78.6959 14.7162 79.0593 14.8095 79.4659 14.8095C79.8459 14.8095 80.1793 14.7262 80.4659 14.5595C80.7593 14.3862 80.9859 14.1328 81.1459 13.7995H82.7559C82.5226 14.5128 82.1126 15.0695 81.5259 15.4695C80.9459 15.8628 80.2626 16.0595 79.4759 16.0595C78.8093 16.0595 78.2059 15.9095 77.6659 15.6095C77.1326 15.3028 76.7093 14.8795 76.3959 14.3395C76.0893 13.7995 75.9359 13.1862 75.9359 12.4995ZM87.5517 15.9995L86.0117 13.2795H85.3517V15.9995H83.9517V9.01951H86.5717C87.1117 9.01951 87.5717 9.11618 87.9517 9.30951C88.3317 9.49618 88.6151 9.75284 88.8017 10.0795C88.9951 10.3995 89.0917 10.7595 89.0917 11.1595C89.0917 11.6195 88.9584 12.0362 88.6917 12.4095C88.4251 12.7762 88.0284 13.0295 87.5017 13.1695L89.1717 15.9995H87.5517ZM85.3517 12.2295H86.5217C86.9017 12.2295 87.1851 12.1395 87.3717 11.9595C87.5584 11.7728 87.6517 11.5162 87.6517 11.1895C87.6517 10.8695 87.5584 10.6228 87.3717 10.4495C87.1851 10.2695 86.9017 10.1795 86.5217 10.1795H85.3517V12.2295ZM91.758 9.01951V15.9995H90.358V9.01951H91.758ZM97.1012 12.4195C97.4945 12.4928 97.8178 12.6895 98.0712 13.0095C98.3245 13.3295 98.4512 13.6962 98.4512 14.1095C98.4512 14.4828 98.3578 14.8128 98.1712 15.0995C97.9912 15.3795 97.7278 15.5995 97.3812 15.7595C97.0345 15.9195 96.6245 15.9995 96.1512 15.9995H93.1412V9.01951H96.0212C96.4945 9.01951 96.9012 9.09618 97.2412 9.24951C97.5878 9.40284 97.8478 9.61618 98.0212 9.88951C98.2012 10.1628 98.2912 10.4728 98.2912 10.8195C98.2912 11.2262 98.1812 11.5662 97.9612 11.8395C97.7478 12.1128 97.4612 12.3062 97.1012 12.4195ZM94.5412 11.8995H95.8212C96.1545 11.8995 96.4112 11.8262 96.5912 11.6795C96.7712 11.5262 96.8612 11.3095 96.8612 11.0295C96.8612 10.7495 96.7712 10.5328 96.5912 10.3795C96.4112 10.2262 96.1545 10.1495 95.8212 10.1495H94.5412V11.8995ZM95.9512 14.8595C96.2912 14.8595 96.5545 14.7795 96.7412 14.6195C96.9345 14.4595 97.0312 14.2328 97.0312 13.9395C97.0312 13.6395 96.9312 13.4062 96.7312 13.2395C96.5312 13.0662 96.2612 12.9795 95.9212 12.9795H94.5412V14.8595H95.9512ZM100.967 10.1495V11.8995H103.317V13.0095H100.967V14.8595H103.617V15.9995H99.567V9.00951H103.617V10.1495H100.967Z" fill="white"/>
<path d="M64.16 20.3195L58.64 30.9515V36.9995H55.904V30.9515L50.36 20.3195H53.408L57.272 28.5035L61.136 20.3195H64.16ZM72.0673 37.2155C70.8193 37.2155 69.6913 36.9355 68.6833 36.3755C67.6753 35.7995 66.8833 34.9995 66.3073 33.9755C65.7313 32.9355 65.4433 31.7355 65.4433 30.3755C65.4433 29.0315 65.7393 27.8395 66.3313 26.7995C66.9233 25.7595 67.7313 24.9595 68.7553 24.3995C69.7793 23.8395 70.9233 23.5595 72.1873 23.5595C73.4513 23.5595 74.5953 23.8395 75.6193 24.3995C76.6433 24.9595 77.4513 25.7595 78.0433 26.7995C78.6353 27.8395 78.9313 29.0315 78.9313 30.3755C78.9313 31.7195 78.6273 32.9115 78.0193 33.9515C77.4113 34.9915 76.5793 35.7995 75.5233 36.3755C74.4833 36.9355 73.3313 37.2155 72.0673 37.2155ZM72.0673 34.8395C72.7713 34.8395 73.4273 34.6715 74.0353 34.3355C74.6593 33.9995 75.1633 33.4955 75.5473 32.8235C75.9313 32.1515 76.1233 31.3355 76.1233 30.3755C76.1233 29.4155 75.9393 28.6075 75.5713 27.9515C75.2033 27.2795 74.7153 26.7755 74.1073 26.4395C73.4993 26.1035 72.8433 25.9355 72.1393 25.9355C71.4353 25.9355 70.7793 26.1035 70.1713 26.4395C69.5793 26.7755 69.1073 27.2795 68.7553 27.9515C68.4033 28.6075 68.2273 29.4155 68.2273 30.3755C68.2273 31.7995 68.5873 32.9035 69.3073 33.6875C70.0433 34.4555 70.9633 34.8395 72.0673 34.8395ZM93.6119 23.7755V36.9995H90.8759V35.4395C90.4439 35.9835 89.8759 36.4155 89.1719 36.7355C88.4839 37.0395 87.7479 37.1915 86.9639 37.1915C85.9239 37.1915 84.9879 36.9755 84.1559 36.5435C83.3399 36.1115 82.6919 35.4715 82.2119 34.6235C81.7479 33.7755 81.5159 32.7515 81.5159 31.5515V23.7755H84.2279V31.1435C84.2279 32.3275 84.5239 33.2395 85.1159 33.8795C85.7079 34.5035 86.5159 34.8155 87.5399 34.8155C88.5639 34.8155 89.3719 34.5035 89.9639 33.8795C90.5719 33.2395 90.8759 32.3275 90.8759 31.1435V23.7755H93.6119ZM107.998 20.3195V22.5515H103.558V36.9995H100.822V22.5515H96.3579V20.3195H107.998ZM122.745 23.7755V36.9995H120.009V35.4395C119.577 35.9835 119.009 36.4155 118.305 36.7355C117.617 37.0395 116.881 37.1915 116.097 37.1915C115.057 37.1915 114.121 36.9755 113.289 36.5435C112.473 36.1115 111.825 35.4715 111.345 34.6235C110.881 33.7755 110.649 32.7515 110.649 31.5515V23.7755H113.361V31.1435C113.361 32.3275 113.657 33.2395 114.249 33.8795C114.841 34.5035 115.649 34.8155 116.673 34.8155C117.697 34.8155 118.505 34.5035 119.097 33.8795C119.705 33.2395 120.009 32.3275 120.009 31.1435V23.7755H122.745ZM129.091 25.7435C129.555 25.1035 130.187 24.5835 130.987 24.1835C131.803 23.7675 132.707 23.5595 133.699 23.5595C134.867 23.5595 135.923 23.8395 136.867 24.3995C137.811 24.9595 138.555 25.7595 139.099 26.7995C139.643 27.8235 139.915 28.9995 139.915 30.3275C139.915 31.6555 139.643 32.8475 139.099 33.9035C138.555 34.9435 137.803 35.7595 136.843 36.3515C135.899 36.9275 134.851 37.2155 133.699 37.2155C132.675 37.2155 131.763 37.0155 130.963 36.6155C130.179 36.2155 129.555 35.7035 129.091 35.0795V36.9995H126.355V19.2395H129.091V25.7435ZM137.131 30.3275C137.131 29.4155 136.939 28.6315 136.555 27.9755C136.187 27.3035 135.691 26.7995 135.067 26.4635C134.459 26.1115 133.803 25.9355 133.099 25.9355C132.411 25.9355 131.755 26.1115 131.131 26.4635C130.523 26.8155 130.027 27.3275 129.643 27.9995C129.275 28.6715 129.091 29.4635 129.091 30.3755C129.091 31.2875 129.275 32.0875 129.643 32.7755C130.027 33.4475 130.523 33.9595 131.131 34.3115C131.755 34.6635 132.411 34.8395 133.099 34.8395C133.803 34.8395 134.459 34.6635 135.067 34.3115C135.691 33.9435 136.187 33.4155 136.555 32.7275C136.939 32.0395 137.131 31.2395 137.131 30.3275ZM154.74 30.0635C154.74 30.5595 154.708 31.0075 154.644 31.4075H144.54C144.62 32.4635 145.012 33.3115 145.716 33.9515C146.42 34.5915 147.284 34.9115 148.308 34.9115C149.78 34.9115 150.82 34.2955 151.428 33.0635H154.38C153.98 34.2795 153.252 35.2795 152.196 36.0635C151.156 36.8315 149.86 37.2155 148.308 37.2155C147.044 37.2155 145.908 36.9355 144.9 36.3755C143.908 35.7995 143.124 34.9995 142.548 33.9755C141.988 32.9355 141.708 31.7355 141.708 30.3755C141.708 29.0155 141.98 27.8235 142.524 26.7995C143.084 25.7595 143.86 24.9595 144.852 24.3995C145.86 23.8395 147.012 23.5595 148.308 23.5595C149.556 23.5595 150.668 23.8315 151.644 24.3755C152.62 24.9195 153.38 25.6875 153.924 26.6795C154.468 27.6555 154.74 28.7835 154.74 30.0635ZM151.884 29.1995C151.868 28.1915 151.508 27.3835 150.804 26.7755C150.1 26.1675 149.228 25.8635 148.188 25.8635C147.244 25.8635 146.436 26.1675 145.764 26.7755C145.092 27.3675 144.692 28.1755 144.564 29.1995H151.884Z" fill="white"/>
<rect x="50" y="40.9995" width="108" height="0.001" fill="white"/>
</svg>
