<svg width="160" height="32" viewBox="0 0 160 32" fill="none" xmlns="http://www.w3.org/2000/svg">
<rect width="160" height="32" rx="2" fill="#FE0000"/>
<path d="M24.3047 11.4531C24.2329 11.1651 24.0923 10.8988 23.895 10.677C23.6977 10.4552 23.4496 10.2846 23.1719 10.1797C20.5 9.14844 16.2344 9.15625 16 9.15625C15.7656 9.15625 11.5 9.14844 8.82813 10.1797C8.55042 10.2846 8.30229 10.4552 8.10499 10.677C7.9077 10.8988 7.76712 11.1651 7.69531 11.4531C7.49219 12.2266 7.25 13.6484 7.25 16C7.25 18.3516 7.49219 19.7734 7.69531 20.5469C7.76712 20.8349 7.9077 21.1012 8.10499 21.323C8.30229 21.5448 8.55042 21.7154 8.82813 21.8203C11.3906 22.8125 15.4063 22.8438 15.9453 22.8438H16.0547C16.5937 22.8438 20.6094 22.8125 23.1719 21.8203C23.4496 21.7154 23.6977 21.5448 23.895 21.323C24.0923 21.1012 24.2329 20.8349 24.3047 20.5469C24.5078 19.7734 24.75 18.3516 24.75 16C24.75 13.6484 24.5078 12.2266 24.3047 11.4531V11.4531ZM18.6719 16.2578L14.9219 18.7578C14.8721 18.7944 14.8117 18.8136 14.75 18.8125C14.6982 18.8106 14.6476 18.7972 14.6016 18.7734C14.5516 18.7475 14.5099 18.7082 14.4809 18.6599C14.4519 18.6116 14.4369 18.5563 14.4375 18.5V13.5C14.4369 13.4437 14.4519 13.3884 14.4809 13.3401C14.5099 13.2918 14.5516 13.2525 14.6016 13.2266C14.6514 13.2 14.7075 13.1874 14.7639 13.1902C14.8203 13.1929 14.8749 13.2109 14.9219 13.2422L18.6719 15.7422C18.7154 15.7696 18.7514 15.8077 18.7762 15.8528C18.8011 15.8978 18.8142 15.9485 18.8142 16C18.8142 16.0515 18.8011 16.1022 18.7762 16.1472C18.7514 16.1923 18.7154 16.2304 18.6719 16.2578Z" fill="white"/>
<path d="M44.62 9.48951L40.48 17.4635V21.9995H38.428V17.4635L34.27 9.48951H36.556L39.454 15.6275L42.352 9.48951H44.62ZM50.5504 22.1615C49.6144 22.1615 48.7684 21.9515 48.0124 21.5315C47.2564 21.0995 46.6624 20.4995 46.2304 19.7315C45.7984 18.9515 45.5824 18.0515 45.5824 17.0315C45.5824 16.0235 45.8044 15.1295 46.2484 14.3495C46.6924 13.5695 47.2984 12.9695 48.0664 12.5495C48.8344 12.1295 49.6924 11.9195 50.6404 11.9195C51.5884 11.9195 52.4464 12.1295 53.2144 12.5495C53.9824 12.9695 54.5884 13.5695 55.0324 14.3495C55.4764 15.1295 55.6984 16.0235 55.6984 17.0315C55.6984 18.0395 55.4704 18.9335 55.0144 19.7135C54.5584 20.4935 53.9344 21.0995 53.1424 21.5315C52.3624 21.9515 51.4984 22.1615 50.5504 22.1615ZM50.5504 20.3795C51.0784 20.3795 51.5704 20.2535 52.0264 20.0015C52.4944 19.7495 52.8724 19.3715 53.1604 18.8675C53.4484 18.3635 53.5924 17.7515 53.5924 17.0315C53.5924 16.3115 53.4544 15.7055 53.1784 15.2135C52.9024 14.7095 52.5364 14.3315 52.0804 14.0795C51.6244 13.8275 51.1324 13.7015 50.6044 13.7015C50.0764 13.7015 49.5844 13.8275 49.1284 14.0795C48.6844 14.3315 48.3304 14.7095 48.0664 15.2135C47.8024 15.7055 47.6704 16.3115 47.6704 17.0315C47.6704 18.0995 47.9404 18.9275 48.4804 19.5155C49.0324 20.0915 49.7224 20.3795 50.5504 20.3795ZM66.709 12.0815V21.9995H64.657V20.8295C64.333 21.2375 63.907 21.5615 63.379 21.8015C62.863 22.0295 62.311 22.1435 61.723 22.1435C60.943 22.1435 60.241 21.9815 59.617 21.6575C59.005 21.3335 58.519 20.8535 58.159 20.2175C57.811 19.5815 57.637 18.8135 57.637 17.9135V12.0815H59.671V17.6075C59.671 18.4955 59.893 19.1795 60.337 19.6595C60.781 20.1275 61.387 20.3615 62.155 20.3615C62.923 20.3615 63.529 20.1275 63.973 19.6595C64.429 19.1795 64.657 18.4955 64.657 17.6075V12.0815H66.709ZM77.4984 9.48951V11.1635H74.1684V21.9995H72.1164V11.1635H68.7684V9.48951H77.4984ZM88.5586 12.0815V21.9995H86.5066V20.8295C86.1826 21.2375 85.7566 21.5615 85.2286 21.8015C84.7126 22.0295 84.1606 22.1435 83.5726 22.1435C82.7926 22.1435 82.0906 21.9815 81.4666 21.6575C80.8546 21.3335 80.3686 20.8535 80.0086 20.2175C79.6606 19.5815 79.4866 18.8135 79.4866 17.9135V12.0815H81.5206V17.6075C81.5206 18.4955 81.7426 19.1795 82.1866 19.6595C82.6306 20.1275 83.2366 20.3615 84.0046 20.3615C84.7726 20.3615 85.3786 20.1275 85.8226 19.6595C86.2786 19.1795 86.5066 18.4955 86.5066 17.6075V12.0815H88.5586ZM93.318 13.5575C93.666 13.0775 94.14 12.6875 94.74 12.3875C95.352 12.0755 96.03 11.9195 96.774 11.9195C97.65 11.9195 98.442 12.1295 99.15 12.5495C99.858 12.9695 100.416 13.5695 100.824 14.3495C101.232 15.1175 101.436 15.9995 101.436 16.9955C101.436 17.9915 101.232 18.8855 100.824 19.6775C100.416 20.4575 99.852 21.0695 99.132 21.5135C98.424 21.9455 97.638 22.1615 96.774 22.1615C96.006 22.1615 95.322 22.0115 94.722 21.7115C94.134 21.4115 93.666 21.0275 93.318 20.5595V21.9995H91.266V8.67951H93.318V13.5575ZM99.348 16.9955C99.348 16.3115 99.204 15.7235 98.916 15.2315C98.64 14.7275 98.268 14.3495 97.8 14.0975C97.344 13.8335 96.852 13.7015 96.324 13.7015C95.808 13.7015 95.316 13.8335 94.848 14.0975C94.392 14.3615 94.02 14.7455 93.732 15.2495C93.456 15.7535 93.318 16.3475 93.318 17.0315C93.318 17.7155 93.456 18.3155 93.732 18.8315C94.02 19.3355 94.392 19.7195 94.848 19.9835C95.316 20.2475 95.808 20.3795 96.324 20.3795C96.852 20.3795 97.344 20.2475 97.8 19.9835C98.268 19.7075 98.64 19.3115 98.916 18.7955C99.204 18.2795 99.348 17.6795 99.348 16.9955ZM112.555 16.7975C112.555 17.1695 112.531 17.5055 112.483 17.8055H104.905C104.965 18.5975 105.259 19.2335 105.787 19.7135C106.315 20.1935 106.963 20.4335 107.731 20.4335C108.835 20.4335 109.615 19.9715 110.071 19.0475H112.285C111.985 19.9595 111.439 20.7095 110.647 21.2975C109.867 21.8735 108.895 22.1615 107.731 22.1615C106.783 22.1615 105.931 21.9515 105.175 21.5315C104.431 21.0995 103.843 20.4995 103.411 19.7315C102.991 18.9515 102.781 18.0515 102.781 17.0315C102.781 16.0115 102.985 15.1175 103.393 14.3495C103.813 13.5695 104.395 12.9695 105.139 12.5495C105.895 12.1295 106.759 11.9195 107.731 11.9195C108.667 11.9195 109.501 12.1235 110.233 12.5315C110.965 12.9395 111.535 13.5155 111.943 14.2595C112.351 14.9915 112.555 15.8375 112.555 16.7975ZM110.413 16.1495C110.401 15.3935 110.131 14.7875 109.603 14.3315C109.075 13.8755 108.421 13.6475 107.641 13.6475C106.933 13.6475 106.327 13.8755 105.823 14.3315C105.319 14.7755 105.019 15.3815 104.923 16.1495H110.413Z" fill="white"/>
<rect x="34" y="24.9995" width="124" height="0.001" fill="white"/>
</svg>
